PathFileType	4	(X/Y/Z)	C:/Users/opensim2020/Desktop/walking_exp_matlab/subject01_walking14_straight_02.trc	
DataRate	CameraRate	NumFrames	NumMarkers	Units	OrigDataRate	OrigDataStartFrame	OrigNumFrames	
100.00	100.00	7	42	mm	100.00	1147	125	
Frame#	Time	LFHD			RFHD			LBHD			RBHD			C7			T10			CLAV			STRN			RBAK			LSHO			LUPA			LELB			LFRM			LWRA			LWRB			LFIN			RSHO			RUPA			RELB			RFRM			RWRA			RWRB			RFIN			LASI			RASI			LPSI			RPSI			LTHI			LKNE			LTIB			LANK			LHEE			LTOE			RTHI			RKNE			RTIB			RANK			RHEE			RTOE			*39			*40			*41			
		X1	Y1	Z1	X2	Y2	Z2	X3	Y3	Z3	X4	Y4	Z4	X5	Y5	Z5	X6	Y6	Z6	X7	Y7	Z7	X8	Y8	Z8	X9	Y9	Z9	X10	Y10	Z10	X11	Y11	Z11	X12	Y12	Z12	X13	Y13	Z13	X14	Y14	Z14	X15	Y15	Z15	X16	Y16	Z16	X17	Y17	Z17	X18	Y18	Z18	X19	Y19	Z19	X20	Y20	Z20	X21	Y21	Z21	X22	Y22	Z22	X23	Y23	Z23	X24	Y24	Z24	X25	Y25	Z25	X26	Y26	Z26	X27	Y27	Z27	X28	Y28	Z28	X29	Y29	Z29	X30	Y30	Z30	X31	Y31	Z31	X32	Y32	Z32	X33	Y33	Z33	X34	Y34	Z34	X35	Y35	Z35	X36	Y36	Z36	X37	Y37	Z37	X38	Y38	Z38	X39	Y39	Z39	X40	Y40	Z40	X41	Y41	Z41	X42	Y42	Z42	

1	0.000	-1058.97546	994.99988	1670.20569	-1167.23535	956.41412	1674.09888	-1092.35413	1102.49109	1618.44641	-1207.39270	1065.26941	1621.32080	-1117.07678	1125.64526	1435.34412	-1104.66858	1185.89185	1146.72205	-1105.59448	983.03687	1360.10315	-1095.68555	953.59021	1202.59973	-1191.48401	1189.32434	1248.13257	-949.24756	1047.27087	1400.64075	-856.60535	1115.45679	1230.76343	-852.64398	1166.77380	1090.89929	-820.91235	1163.64905	978.87158	-824.09894	1123.19568	843.77509	-809.24664	1179.23596	857.67950	-784.85602	1158.65637	780.57593	-1257.46021	1037.28308	1398.47913	-1367.75305	1095.90210	1208.50903	-1388.04016	1082.73035	1082.90845	-1419.72083	995.66486	995.59918	-1407.14575	862.28668	951.75226	-1438.88770	899.60565	923.14142	-1452.05200	823.42139	889.14709	-993.84192	1020.47498	934.17889	-1211.97656	1033.42847	929.54602	-1032.54358	1206.76904	950.52795	-1175.48560	1215.70618	962.56982	-931.70081	970.49756	613.81415	-959.11182	937.56512	486.30505	-954.97339	939.55939	301.02686	-1012.55298	901.49396	81.97351	-1070.45190	934.31427	42.33005	-1005.55652	756.28589	86.85496	-1269.62524	1178.21252	619.17139	-1251.33948	1217.80518	464.21286	-1252.32190	1314.53772	316.30243	-1212.60730	1378.74658	115.83729	-1155.33264	1425.51221	90.09122	-1235.40283	1254.91858	39.99949	-1149.46375	974.70697	1707.49548	-3101.96265	1973.01672	1023.40369	-3140.73389	2012.50513	1022.13239 
2	0.010	-1057.81360	982.36902	1668.40735	-1166.04028	943.62152	1672.50171	-1091.45093	1089.78076	1616.63354	-1206.39600	1052.41394	1619.70679	-1116.39453	1112.82141	1433.54285	-1104.97791	1172.89221	1144.74792	-1105.13049	970.11035	1358.17615	-1095.70020	940.63873	1200.64978	-1191.58447	1176.42029	1246.55994	-948.57086	1034.39392	1398.19849	-856.63336	1104.11060	1228.48145	-853.19165	1156.69177	1089.58447	-821.00269	1156.35596	977.79443	-823.51508	1119.27502	841.64514	-808.95465	1174.97131	857.03131	-784.31421	1156.40430	779.47180	-1257.05493	1024.28748	1397.23853	-1368.09216	1081.91577	1207.78796	-1389.12122	1068.50476	1082.24878	-1420.47278	979.23254	997.16589	-1406.54736	845.05682	956.68799	-1438.60376	881.18542	927.09760	-1451.26941	804.08380	895.48499	-994.97461	1007.00323	932.04773	-1213.07275	1020.57196	927.72827	-1032.95898	1193.47473	948.57483	-1175.77136	1202.61377	960.98553	-930.86646	959.96606	610.41125	-959.27454	923.82880	484.94061	-953.95905	918.41864	300.93478	-1011.13269	873.24298	82.74959	-1068.82446	904.66974	41.49527	-1005.31274	727.71533	92.10144	-1270.50586	1168.61816	618.66473	-1252.10352	1210.08362	464.08795	-1252.78723	1309.33386	317.67917	-1213.23010	1376.70227	118.34164	-1155.82349	1424.01270	93.67160	-1235.33728	1254.50220	40.19349	-1148.18445	962.04962	1705.80591	-3101.84912	1973.16248	1023.42407	-3140.72339	2012.53406	1022.11078 
3	0.020	-1056.46497	969.73389	1666.67102	-1164.69495	930.77716	1670.93274	-1090.34778	1077.00317	1614.84534	-1205.34363	1039.52185	1618.16492	-1115.37170	1099.87720	1431.68323	-1105.12830	1159.73120	1142.77625	-1104.20056	957.12726	1356.33362	-1095.64966	927.63165	1198.78369	-1191.38733	1163.74170	1245.10217	-947.69012	1021.39325	1395.79163	-856.49805	1092.31738	1226.20947	-853.52570	1146.23486	1088.05652	-821.02606	1148.37451	976.57898	-823.13855	1114.45142	839.68182	-809.15588	1169.81201	856.37488	-783.89880	1153.32703	778.63483	-1256.17517	1011.31964	1395.94299	-1368.21069	1068.05139	1206.93530	-1389.92224	1054.56287	1081.56274	-1420.76782	963.33606	998.41522	-1405.64966	828.52319	961.19818	-1438.14282	863.52899	930.72784	-1450.31567	785.53168	901.37201	-995.83002	993.29370	930.05060	-1213.71411	1007.06757	925.94287	-1033.08813	1180.25525	946.63550	-1175.81824	1189.22607	959.32178	-929.65387	948.89954	607.60712	-959.27777	909.96649	484.05539	-953.33044	899.00232	300.87424	-1009.73169	847.36804	83.23357	-1066.92749	878.25269	40.94991	-1005.06653	701.78790	96.57990	-1271.40564	1158.48633	618.15186	-1252.47241	1201.56445	463.70746	-1253.45569	1303.62402	319.16232	-1213.62610	1374.51917	121.01075	-1156.55530	1422.59692	97.53701	-1235.36255	1254.26868	40.18794	-1146.79065	949.21643	1704.22668	-3101.89478	1973.20154	1023.56927	-3140.82031	2012.57361	1022.15454 
4	0.030	-1054.95422	956.97418	1664.96924	-1163.12646	917.84210	1669.44238	-1089.09009	1064.16968	1613.12720	-1203.89954	1026.47925	1616.64331	-1114.33459	1086.85022	1430.06335	-1105.15027	1146.44800	1140.85266	-1103.44043	943.87500	1354.52673	-1095.39294	914.41046	1197.03528	-1190.81287	1150.65381	1243.50696	-946.67084	1008.24249	1393.40686	-856.11877	1080.43872	1223.92322	-853.36938	1135.65186	1086.68066	-820.96906	1139.83936	975.37854	-822.92767	1108.61841	837.76208	-808.76361	1163.76978	855.65063	-783.60962	1149.04834	777.60132	-1254.80249	998.49091	1394.65503	-1368.01440	1054.47253	1206.05591	-1390.47192	1040.81238	1080.87903	-1420.79736	947.90070	999.52167	-1404.56384	812.63849	965.16864	-1437.49622	846.64447	933.98517	-1449.30164	767.83917	906.76416	-996.69360	979.36072	928.11517	-1214.70325	993.95416	924.12402	-1032.86084	1166.59363	944.67389	-1175.63538	1175.82104	957.59900	-928.74017	936.50366	605.70178	-959.34570	895.89429	483.42313	-953.05115	881.41858	300.43149	-1008.60150	824.99518	83.71674	-1065.27466	855.36682	40.35334	-1005.11688	679.35638	99.83186	-1272.23987	1147.77271	617.59222	-1253.77539	1192.64941	463.53882	-1254.16064	1297.10547	320.55814	-1214.57007	1372.43665	123.88308	-1157.50159	1420.89465	102.02843	-1235.62988	1253.82800	40.55172	-1145.06409	936.35400	1702.49304	-3102.11938	1973.03210	1023.86151	-3140.68042	2012.55981	1021.99158 
5	0.040	-1053.28357	944.11841	1663.28723	-1161.35632	904.85736	1668.02222	-1087.64868	1051.25830	1611.49731	-1202.44006	1013.40894	1615.24622	-1113.06909	1073.72229	1428.37549	-1105.03381	1133.13672	1139.08154	-1102.50818	930.62238	1352.83533	-1094.88232	901.09772	1195.37903	-1190.00098	1137.51538	1241.87329	-945.54266	994.97620	1391.10742	-855.42584	1068.13062	1221.66003	-853.42450	1124.26514	1084.96973	-820.85699	1130.56897	974.08728	-822.72418	1102.01135	835.88800	-808.68634	1156.73401	854.87262	-783.44745	1143.52771	776.39075	-1253.88892	985.33295	1393.45947	-1367.43774	1041.19556	1205.09717	-1390.74084	1027.33936	1080.17761	-1420.47034	932.96423	1000.38824	-1403.36829	797.36151	968.60602	-1436.60962	830.41827	936.84845	-1447.73083	750.97394	911.25909	-997.39130	965.17310	926.41351	-1215.37390	980.48828	922.54083	-1032.45776	1152.13257	942.48969	-1175.23035	1162.13721	955.85144	-928.74127	921.97058	604.99969	-959.48285	881.38092	483.01059	-952.89490	865.43921	299.56622	-1007.78784	806.01898	83.78323	-1064.32397	836.02808	39.52848	-1005.10498	660.16937	101.02896	-1273.06934	1136.50610	617.06885	-1254.75024	1182.83350	463.14465	-1254.98877	1290.01099	322.22818	-1215.83655	1369.51709	127.30311	-1158.61780	1418.75818	106.82522	-1235.77881	1253.46997	40.47228	-1143.41455	923.40692	1701.19287	-3101.97119	1973.20581	1023.32892	-3140.80884	2012.49268	1022.06702 
6	0.050	-1051.35254	931.25635	1661.76270	-1159.41296	891.82745	1666.67957	-1086.06702	1038.29456	1609.93933	-1201.11584	1000.45587	1614.07593	-1111.70667	1060.47693	1426.82080	-1104.75952	1119.52502	1137.30310	-1101.43994	917.25201	1351.26855	-1094.32336	887.65833	1193.91504	-1188.96411	1124.22876	1240.26025	-944.27655	981.71698	1388.89661	-854.71863	1055.54321	1219.51477	-853.25653	1112.78076	1083.49500	-820.69464	1120.63025	972.78522	-822.58142	1094.52197	834.11383	-808.00629	1148.85950	854.12878	-783.34161	1137.00012	775.31537	-1252.84387	972.22339	1392.28748	-1366.60461	1028.29712	1204.12219	-1390.71729	1014.10596	1079.43945	-1420.12939	918.55554	1001.22729	-1401.95703	782.66241	971.50323	-1435.57458	814.89423	939.17584	-1446.21753	734.88049	915.38434	-998.03760	950.49481	924.92395	-1216.05518	966.87573	921.14819	-1031.93286	1137.79028	940.62061	-1174.60950	1148.28845	954.09320	-929.83136	905.47998	605.05847	-959.70319	866.02307	482.64929	-952.78802	850.56708	298.20886	-1007.53973	790.42963	82.31540	-1063.87451	820.39563	38.23725	-1005.09808	644.67377	100.29491	-1273.83984	1124.61780	616.51355	-1255.82129	1172.13770	462.67371	-1255.99463	1282.11670	323.83926	-1216.56506	1366.45520	130.55322	-1159.99292	1415.77881	112.01198	-1235.54944	1253.02405	40.32599	-1141.35889	910.45386	1699.69397	-3102.02148	1973.09912	1023.80847	-3140.71631	2012.52612	1021.96887 
7	0.060	-1049.33984	918.22345	1660.29199	-1157.31177	878.68604	1665.41235	-1084.32837	1025.27649	1608.50171	-1198.95557	987.08148	1612.68347	-1110.18860	1047.16699	1425.30249	-1104.36133	1105.66211	1135.55457	-1100.17834	903.87048	1349.84399	-1093.61963	873.97125	1192.59607	-1187.74780	1110.78516	1238.69299	-942.79297	968.39099	1386.85339	-853.84680	1042.72937	1217.30554	-853.06024	1100.76550	1081.84692	-820.46741	1110.12500	971.46259	-822.44061	1086.01965	832.35809	-808.04425	1139.98486	853.14673	-783.37134	1129.35498	774.02655	-1251.49292	959.03595	1391.12720	-1365.49585	1015.61920	1203.17969	-1390.41003	1001.10693	1078.73206	-1419.41589	904.58783	1001.72595	-1400.42444	768.57916	973.79346	-1434.59351	800.02008	941.15778	-1444.76147	719.58160	918.72650	-998.58099	935.56140	923.58191	-1216.63513	952.95630	919.71216	-1031.32349	1123.07227	938.85382	-1173.78613	1134.28418	952.26093	-931.55609	887.79993	605.45612	-960.13977	850.13611	482.28223	-952.58704	836.54468	296.57721	-1007.49951	777.82617	80.53040	-1063.84595	808.46643	37.02149	-1005.03955	632.34027	97.11997	-1274.59937	1112.08545	615.97601	-1256.84741	1160.45789	461.92233	-1257.11023	1273.63550	325.58917	-1217.98425	1363.00940	134.64137	-1161.28967	1412.70508	117.61340	-1235.62024	1252.53723	40.29117	-1139.10254	897.36493	1698.34460	-3101.95435	1973.24854	1023.43988	-3140.71362	2012.49365	1022.12445 
